<svg xmlns="http://www.w3.org/2000/svg" xmlns:xlink="http://www.w3.org/1999/xlink" version="1.1" x="0px" y="0px" viewBox="0 0 32 40" style="enable-background:new 0 0 32 32;" xml:space="preserve"><path fill="#06b6d4" d="M24.901,10.859c-0.067-0.548-0.564-0.933-1.115-0.87c-0.548,0.068-0.938,0.567-0.869,1.115  c0.035,0.284,0.053,0.573,0.053,0.866c0,0.552,0.447,1,1,1s1-0.448,1-1C24.97,11.599,24.947,11.225,24.901,10.859z"/><path fill="#06b6d4" d="M23.75,7.458c-1.207-2.067-3.223-3.59-5.531-4.179C17.684,3.138,17.139,3.464,17.003,4c-0.137,0.535,0.187,1.08,0.722,1.216  c1.793,0.458,3.359,1.643,4.299,3.25c0.186,0.318,0.521,0.496,0.864,0.496c0.171,0,0.345-0.044,0.504-0.137  C23.868,8.547,24.028,7.935,23.75,7.458z"/><path fill="#06b6d4" d="M16,6c-0.553,0-1,0.448-1,1v14.916C14.053,21.35,12.849,21,11.5,21C8.416,21,6,22.757,6,25s2.416,4,5.5,4s5.5-1.757,5.5-4  V8.143c1.703,0.447,2.97,1.985,2.97,3.827v1.09c0,0.552,0.447,1,1,1s1-0.448,1-1v-1.09C21.97,8.678,19.292,6,16,6z M11.5,27  C9.437,27,8,25.946,8,25s1.437-2,3.5-2c2.062,0,3.5,1.054,3.5,2S13.562,27,11.5,27z"/></svg>